<?xml version="1.0" encoding="utf-8"?>
<!-- Generator: Adobe Illustrator 23.0.4, SVG Export Plug-In . SVG Version: 6.00 Build 0)  -->
<svg version="1.1" id="Layer_1" xmlns="http://www.w3.org/2000/svg" xmlns:xlink="http://www.w3.org/1999/xlink" x="0px" y="0px"
	 viewBox="0 0 512 512" style="enable-background:new 0 0 512 512;" xml:space="preserve">
<style type="text/css">
	.st0{fill:#EAEAEA;}
</style>
<path class="st0" d="M384,224v-96C384,57.4,326.6,0,256,0c-70.6,0-128,57.4-128,128v96c-35.3,0-64,28.7-64,64v160
	c0,35.3,28.7,64,64,64h256c35.3,0,64-28.7,64-64V288C448,252.7,419.3,224,384,224z M272,379.1V432c0,8.8-7.2,16-16,16s-16-7.2-16-16
	v-52.9c-9.4-5.6-16-15.4-16-27.1c0-17.7,14.3-32,32-32s32,14.3,32,32C288,363.7,281.4,373.5,272,379.1z M320,224H192v-96
	c0-35.3,28.7-64,64-64c35.3,0,64,28.7,64,64V224z"/>
</svg>
